<?xml version="1.0" standalone="no"?>
<!DOCTYPE svg PUBLIC "-//W3C//DTD SVG 20010904//EN"
 "http://www.w3.org/TR/2001/REC-SVG-20010904/DTD/svg10.dtd">
<svg version="1.0" xmlns="http://www.w3.org/2000/svg"
 width="400.000000pt" height="400.000000pt" viewBox="0 0 400.000000 400.000000"
 preserveAspectRatio="xMidYMid meet">

<g transform="translate(0.000000,400.000000) scale(0.100000,-0.100000)"
fill="#000000" stroke="none">
<path d="M1330 3070 c0 -5 7 -10 16 -10 8 0 12 5 9 10 -3 6 -10 10 -16 10 -5
0 -9 -4 -9 -10z"/>
<path d="M1510 3071 c0 -5 5 -13 10 -16 6 -3 10 -2 10 4 0 5 -4 13 -10 16 -5
3 -10 2 -10 -4z"/>
<path d="M1586 3065 c4 -8 10 -12 15 -9 5 3 9 0 9 -5 0 -6 -15 -11 -32 -10
-18 0 -27 3 -20 6 6 2 9 9 6 15 -4 5 -15 1 -28 -11 -20 -19 -24 -19 -51 -5
-16 8 -38 13 -47 11 -10 -3 -16 -1 -12 4 8 14 -20 11 -35 -3 -11 -10 -13 -10
-7 0 8 14 -10 17 -19 2 -3 -5 -18 -9 -32 -8 -15 2 -28 -2 -30 -8 -4 -12 -53
-6 -53 6 0 5 -9 6 -20 3 -11 -3 -17 -9 -14 -14 3 -5 1 -9 -5 -9 -5 0 -11 5
-13 11 -5 15 -74 -6 -82 -24 -2 -7 -5 -4 -5 6 -1 17 -3 17 -31 -3 -16 -12 -30
-27 -30 -34 0 -8 -11 -12 -30 -11 -16 1 -27 -2 -24 -7 3 -4 -2 -8 -10 -8 -9 0
-16 -4 -16 -10 0 -5 -9 -10 -21 -10 -15 0 -19 -5 -15 -15 4 -10 -1 -15 -17
-16 -12 0 -16 -3 -9 -6 6 -2 12 -9 12 -15 0 -6 -6 -8 -14 -5 -9 4 -16 -3 -20
-16 -9 -33 -7 -37 11 -37 22 0 14 -6 -19 -14 -26 -6 -27 -5 -18 19 7 19 6 25
-4 25 -17 0 -39 -57 -25 -65 5 -4 7 -11 3 -16 -3 -5 0 -17 8 -26 7 -9 8 -14 2
-10 -7 4 -14 0 -17 -7 -3 -8 -2 -17 4 -20 5 -2 4 -3 -3 -2 -7 1 -17 12 -23 24
-5 12 -13 22 -18 22 -4 0 -5 -4 -2 -10 3 -5 0 -10 -7 -10 -10 0 -10 -2 1 -9
11 -7 11 -9 0 -14 -11 -4 -11 -6 1 -6 10 -1 8 -5 -7 -16 -23 -16 -37 -55 -20
-55 7 0 4 -7 -6 -14 -12 -10 -15 -16 -7 -21 8 -5 8 -10 0 -20 -7 -9 -8 -15 -1
-19 6 -4 7 -14 4 -23 -5 -14 -7 -14 -12 -2 -5 12 -9 12 -23 -3 -17 -17 -17
-18 2 -18 13 0 18 -5 14 -15 -4 -11 -13 -13 -28 -9 -17 6 -19 4 -10 -7 13 -18
16 -59 3 -59 -5 0 -4 -9 3 -20 11 -17 10 -22 -2 -30 -13 -9 -13 -10 0 -10 9 0
11 -3 5 -8 -14 -10 -17 -74 -3 -66 8 5 9 1 4 -12 -5 -10 -9 -26 -10 -34 -1 -8
-6 -27 -10 -43 -8 -25 2 -83 21 -132 5 -13 3 -16 -6 -10 -10 6 -12 -2 -8 -36
2 -24 7 -55 11 -69 6 -25 34 -53 45 -45 4 2 8 -7 9 -21 2 -26 -7 -31 -25 -13
-6 6 -16 8 -23 4 -8 -5 -5 -12 10 -22 12 -9 19 -21 16 -30 -4 -9 -2 -11 6 -7
8 5 9 2 5 -10 -5 -12 1 -19 19 -26 14 -6 28 -19 31 -29 4 -15 12 -18 33 -16
19 3 30 -1 34 -12 6 -14 9 -14 28 3 20 19 21 19 13 -5 -5 -16 -4 -21 4 -17 6
4 11 16 11 27 0 10 7 19 15 19 13 0 21 31 16 63 0 4 4 7 9 7 6 0 10 5 10 11 0
5 -5 7 -11 3 -6 -4 -10 1 -8 12 2 11 -1 30 -5 42 -6 19 -14 23 -32 19 -13 -2
-24 0 -24 4 0 5 6 9 13 9 7 0 4 7 -7 15 -23 17 -4 20 25 5 25 -14 24 -10 -11
55 -34 62 -36 69 -17 62 14 -5 17 30 4 51 -5 6 -5 17 -2 22 4 6 -6 48 -20 93
-28 84 -72 144 -100 133 -15 -5 -30 27 -21 43 4 5 0 11 -6 14 -9 3 -7 9 6 19
12 10 16 20 11 29 -5 8 -5 11 0 7 4 -4 14 -1 22 7 8 9 25 12 41 9 35 -7 125
48 116 71 -4 8 -1 15 6 15 7 0 10 7 6 15 -3 8 -1 15 5 15 6 0 8 7 5 16 -4 11
-2 15 8 11 10 -4 19 5 27 28 7 19 16 32 21 29 4 -3 8 4 8 15 0 10 -3 21 -7 24
-5 2 -2 2 5 1 7 -2 15 3 18 11 4 8 10 13 14 10 8 -5 24 23 22 37 -1 4 7 5 18
3 11 -2 20 1 20 7 0 7 4 7 13 0 10 -9 18 -6 31 10 15 17 16 22 5 29 -8 5 -9 9
-4 10 6 0 20 2 33 5 12 2 22 1 22 -4 0 -10 78 -6 119 7 29 9 36 8 48 -7 8 -9
12 -11 8 -4 -3 6 -1 12 4 12 6 0 11 -4 11 -10 0 -5 5 -10 11 -10 5 0 8 4 5 8
-2 4 -1 14 5 22 7 12 9 11 9 -4 0 -11 3 -16 6 -13 4 3 15 2 25 -4 14 -7 19 -6
19 2 0 8 4 8 15 -1 9 -7 15 -8 15 -2 0 6 12 8 28 6 15 -3 36 -6 47 -8 11 -2
23 1 26 6 3 5 22 2 42 -7 23 -9 38 -11 42 -5 4 6 10 8 15 5 5 -3 16 2 24 11
10 10 16 11 16 3 0 -8 4 -8 16 1 8 8 14 9 13 4 -3 -19 1 -34 11 -34 5 0 9 3 9
8 -4 21 3 31 21 29 20 -1 29 -17 10 -17 -5 0 -10 -4 -10 -10 0 -6 9 -6 25 0
20 7 27 6 31 -4 4 -9 16 -13 35 -11 16 2 29 -1 29 -6 0 -6 5 -7 10 -4 6 4 7
12 3 18 -3 7 3 3 15 -7 12 -11 22 -14 22 -8 0 16 16 15 33 -2 12 -12 33 -10
153 16 76 17 142 35 146 42 4 6 8 7 8 1 1 -5 6 1 11 14 5 13 7 26 4 29 -3 3
-5 0 -5 -6 0 -17 -27 -15 -33 2 -3 8 -14 12 -24 10 -13 -4 -23 2 -30 19 -9 19
-17 23 -37 20 -21 -4 -25 -2 -20 10 4 12 1 14 -15 10 -12 -3 -21 -1 -21 4 0 4
-16 8 -35 7 -20 -1 -41 3 -48 10 -15 13 -47 17 -47 5 0 -5 -4 -9 -10 -9 -5 0
-10 7 -10 16 0 8 -5 12 -10 9 -6 -4 -8 -12 -4 -18 3 -7 -4 1 -16 16 -21 26
-24 27 -40 12 -13 -11 -20 -13 -25 -5 -5 8 -12 5 -22 -7 -8 -10 -11 -12 -7 -4
5 11 3 13 -9 8 -22 -8 -22 2 -1 18 16 11 16 12 0 18 -9 4 -16 2 -16 -3 0 -5
-7 -7 -15 -4 -8 4 -15 2 -15 -3 0 -15 -114 -10 -125 5 -12 15 -69 7 -60 -8 3
-5 0 -12 -6 -16 -7 -4 -9 -3 -6 3 3 5 -2 16 -12 24 -24 20 -41 22 -35 4z m99
-15 c3 -5 1 -10 -4 -10 -6 0 -11 5 -11 10 0 6 2 10 4 10 3 0 8 -4 11 -10z
m-265 -18 c0 -5 -7 -9 -15 -9 -8 0 -12 4 -9 9 3 4 9 8 15 8 5 0 9 -4 9 -8z
m17 -14 c-3 -8 -6 -5 -6 6 -1 11 2 17 5 13 3 -3 4 -12 1 -19z m533 -3 c0 -8
-2 -15 -4 -15 -2 0 -6 7 -10 15 -3 8 -1 15 4 15 6 0 10 -7 10 -15z m-280 -144
c0 -6 -4 -13 -10 -16 -5 -3 -10 1 -10 9 0 9 5 16 10 16 6 0 10 -4 10 -9z
m-725 -191 c3 -5 1 -10 -4 -10 -6 0 -11 5 -11 10 0 6 2 10 4 10 3 0 8 -4 11
-10z m-266 -491 c-6 -4 -6 -15 0 -32 6 -15 7 -27 2 -27 -11 0 -20 47 -13 72 3
15 7 16 13 7 4 -8 4 -16 -2 -20z m24 -89 c-3 -12 -8 -19 -11 -16 -5 6 5 36 12
36 2 0 2 -9 -1 -20z"/>
<path d="M2721 2906 c7 -15 15 -23 17 -16 3 7 -3 19 -13 28 -15 16 -16 15 -4
-12z"/>
<path d="M2755 2890 c-3 -6 1 -7 9 -4 18 7 21 14 7 14 -6 0 -13 -4 -16 -10z"/>
<path d="M2740 2850 c0 -5 5 -10 11 -10 5 0 7 5 4 10 -3 6 -8 10 -11 10 -2 0
-4 -4 -4 -10z"/>
<path d="M1187 2833 c-4 -3 -7 -11 -7 -17 0 -6 5 -5 12 2 6 6 9 14 7 17 -3 3
-9 2 -12 -2z"/>
<path d="M810 2760 c0 -5 5 -10 11 -10 5 0 7 5 4 10 -3 6 -8 10 -11 10 -2 0
-4 -4 -4 -10z"/>
<path d="M1856 2725 c-3 -8 -1 -15 4 -15 13 0 22 18 11 24 -5 3 -11 -1 -15 -9z"/>
<path d="M3768 2734 c-4 -4 -3 -13 4 -21 14 -17 3 -29 -15 -15 -13 11 -74 1
-102 -16 -5 -4 -20 -5 -33 -3 -12 1 -22 -1 -21 -6 4 -23 -4 -30 -33 -31 -17 0
-35 -7 -39 -14 -7 -10 -9 -9 -9 5 0 16 -1 16 -18 0 -11 -10 -17 -21 -15 -25 8
-15 -9 -31 -17 -18 -10 16 -60 23 -60 8 0 -6 -10 -8 -23 -4 -35 8 -67 -3 -60
-22 5 -11 2 -14 -10 -9 -11 4 -17 1 -17 -8 0 -21 -19 -28 -37 -13 -10 8 -14 8
-10 1 4 -6 3 -14 -3 -18 -5 -3 -10 -1 -10 5 0 14 -63 5 -68 -9 -2 -6 -22 -11
-44 -11 -36 0 -39 -2 -33 -21 5 -14 3 -19 -4 -15 -6 4 -20 2 -32 -5 -16 -8
-23 -8 -29 1 -5 8 -9 7 -13 -4 -3 -8 -1 -16 5 -18 6 -2 -9 -4 -33 -5 -28 0
-37 2 -25 7 11 3 15 9 10 12 -11 8 -46 -16 -37 -25 3 -4 1 -7 -6 -7 -6 0 -21
-9 -33 -20 -27 -25 -38 -25 -39 -2 0 10 -3 12 -6 5 -2 -7 -9 -13 -14 -13 -6 0
-7 5 -4 10 3 6 1 10 -4 10 -6 0 -11 -4 -11 -10 0 -5 -5 -9 -12 -7 -7 1 -17
-13 -23 -31 -6 -18 -25 -43 -42 -55 -32 -22 -77 -103 -67 -119 4 -5 12 -7 20
-4 8 3 14 -1 14 -10 0 -8 5 -12 10 -9 6 3 10 1 10 -5 0 -6 5 -8 10 -5 6 4 8
10 6 14 -3 4 4 13 16 20 11 7 17 8 14 3 -8 -14 4 -43 15 -36 5 3 7 10 4 15 -3
5 1 6 9 3 11 -4 16 0 16 10 0 9 5 16 10 16 6 0 4 -13 -5 -31 -13 -24 -14 -34
-4 -45 9 -11 8 -14 -2 -14 -8 0 -3 -9 11 -20 22 -17 21 -25 -2 -21 -13 2 -9
-7 17 -35 19 -21 22 -30 14 -40 -11 -13 -6 -18 14 -15 4 0 7 -8 7 -19 0 -12
-5 -17 -13 -14 -8 3 -13 -3 -13 -15 0 -11 3 -18 7 -15 4 2 10 -3 13 -12 9 -22
7 -76 -1 -71 -5 3 -8 -5 -8 -18 0 -13 3 -21 8 -18 4 2 7 0 7 -6 0 -5 -5 -13
-10 -16 -6 -4 -7 -11 -4 -17 4 -6 1 -13 -5 -17 -8 -5 -3 -19 15 -46 15 -22 19
-33 10 -26 -14 12 -16 11 -16 -8 0 -12 -6 -21 -15 -21 -8 0 -15 -4 -15 -10 0
-5 7 -7 15 -4 9 4 15 0 15 -10 0 -9 -5 -16 -11 -16 -6 0 -9 -9 -6 -19 3 -14 1
-18 -9 -14 -15 6 -19 -12 -5 -21 16 -10 -12 -57 -31 -52 -11 2 -18 -3 -20 -18
-2 -14 -9 -20 -20 -18 -11 2 -18 -3 -18 -13 0 -8 -4 -15 -10 -15 -5 0 -10 7
-10 16 0 8 -5 12 -11 9 -6 -4 -8 -14 -4 -22 4 -13 3 -14 -10 -3 -9 8 -15 8
-15 2 0 -6 5 -14 10 -17 6 -3 10 -12 10 -18 0 -7 -8 -3 -16 8 -15 20 -15 20
-34 -2 -21 -27 -30 -29 -30 -9 0 8 -4 17 -9 20 -14 9 -7 -20 9 -40 14 -16 13
-17 -3 -11 -10 4 -26 7 -35 7 -13 0 -14 2 -4 9 11 6 9 9 -7 14 -12 3 -22 -1
-25 -9 -3 -8 -12 -14 -21 -14 -8 0 -15 -5 -15 -11 0 -5 5 -7 12 -3 7 4 8 3 4
-5 -9 -14 -26 -5 -26 15 0 8 -4 14 -10 14 -5 0 -10 -6 -10 -14 0 -8 -5 -18
-12 -22 -7 -4 -8 -3 -4 4 8 14 -3 15 -23 3 -20 -13 -5 -30 22 -24 12 3 20 3
17 0 -3 -3 -14 -7 -25 -9 -11 -1 -24 -7 -28 -13 -5 -6 -6 -2 -3 8 5 14 2 17
-13 12 -12 -3 -21 0 -25 10 -3 9 -10 13 -16 10 -6 -4 -7 -11 -4 -17 5 -7 0 -9
-14 -6 -12 4 -20 3 -18 -1 3 -4 -8 -12 -25 -18 -23 -9 -29 -9 -29 3 0 17 -16
18 -26 2 -4 -6 -2 -14 4 -16 7 -2 10 -8 6 -13 -3 -5 -18 -2 -34 6 -16 8 -37
12 -46 8 -11 -4 -15 -3 -11 4 4 6 0 13 -8 16 -9 4 -12 1 -9 -7 3 -7 -3 -19
-12 -27 -13 -11 -18 -11 -21 -1 -7 20 -33 15 -27 -5 5 -16 4 -16 -10 1 -8 10
-19 15 -25 11 -6 -3 -11 -2 -11 3 0 5 -7 9 -15 9 -11 0 -14 -7 -10 -21 5 -19
5 -19 -5 -3 -13 20 -40 23 -40 5 0 -9 -3 -8 -9 2 -6 8 -8 17 -6 20 2 3 -17 6
-41 6 -24 1 -41 -2 -38 -7 7 -12 0 -11 -46 7 -26 11 -57 15 -85 12 -32 -4 -45
-2 -49 9 -3 8 -10 11 -16 8 -5 -3 -10 -1 -10 4 0 18 -28 12 -33 -6 -3 -13 -5
-12 -6 5 0 13 -5 21 -10 17 -5 -3 -16 1 -24 9 -10 11 -17 12 -25 4 -8 -8 -13
-7 -18 5 -3 9 -10 15 -14 12 -4 -3 -10 2 -13 10 -4 9 -17 13 -42 11 -19 -2
-38 0 -40 5 -3 4 -11 7 -18 5 -7 -1 -9 -1 -4 1 11 7 8 23 -8 39 -8 9 -15 12
-15 7 0 -5 4 -13 10 -19 6 -6 3 -10 -11 -10 -14 0 -19 5 -16 18 3 10 1 16 -4
13 -4 -3 -16 -1 -26 4 -10 5 -33 16 -51 23 -17 7 -32 18 -32 24 0 21 -25 35
-40 21 -10 -10 -12 -8 -7 10 3 12 0 21 -5 20 -6 -1 -12 11 -14 28 -2 16 -11
36 -21 44 -17 13 -17 13 0 8 11 -4 17 -1 17 8 0 8 -4 15 -10 15 -5 0 -10 6
-10 13 0 6 -16 17 -35 23 -38 12 -51 6 -30 -13 11 -10 15 -10 18 0 3 7 6 4 6
-5 1 -10 -3 -18 -8 -18 -5 0 -17 -3 -27 -7 -11 -4 -15 -3 -11 4 8 13 -2 43
-14 43 -5 0 -9 -7 -9 -15 0 -11 -7 -14 -25 -9 -19 5 -25 2 -25 -11 0 -10 5
-13 12 -9 7 4 8 3 4 -4 -12 -19 -36 -14 -29 6 6 15 5 16 -13 2 -10 -8 -26 -23
-35 -34 -16 -19 -18 -19 -42 -3 -24 16 -26 16 -32 -1 -3 -9 -12 -26 -21 -37
-15 -20 -15 -20 -34 5 l-18 24 -13 -27 c-13 -28 -44 -37 -52 -14 -3 9 -9 7
-24 -5 -24 -22 -31 -22 -35 -4 -3 12 -6 12 -23 -1 -16 -13 -17 -15 -2 -10 12
5 17 1 17 -13 0 -13 -6 -18 -20 -17 -11 1 -20 5 -20 10 0 4 -4 6 -9 2 -5 -3
-12 -1 -16 5 -8 13 -25 13 -25 -1 0 -5 4 -8 9 -5 5 3 11 -1 15 -9 4 -11 -2
-15 -25 -15 -21 0 -28 4 -24 13 4 6 -1 3 -10 -8 -13 -16 -17 -17 -24 -6 -6 9
-18 12 -37 7 -16 -4 -36 -8 -45 -9 -9 -1 -15 -7 -12 -14 5 -13 -6 -17 -40 -14
-9 1 -17 -4 -17 -12 0 -10 -8 -13 -27 -9 -22 4 -25 2 -19 -13 3 -10 1 -24 -5
-31 -7 -9 -8 -14 -1 -14 5 0 8 -8 5 -19 -3 -12 2 -20 16 -24 14 -3 19 -10 15
-21 -3 -8 1 -23 10 -31 13 -14 16 -14 16 -2 0 20 29 30 46 16 11 -9 18 -8 32
2 14 11 15 11 5 -1 -27 -29 -7 -42 21 -14 9 8 16 12 16 7 0 -4 5 -1 11 7 8 11
12 12 16 3 7 -19 33 -16 33 5 0 13 2 14 9 3 6 -9 11 -10 15 -2 4 6 21 18 38
27 16 9 27 11 24 5 -6 -10 6 -15 26 -12 4 0 5 -6 2 -14 -4 -8 -2 -15 4 -15 11
0 25 58 16 71 -3 5 -1 9 5 9 5 0 13 -4 16 -10 3 -5 21 -9 39 -8 18 1 39 -3 47
-7 8 -5 11 -4 6 0 -12 14 52 36 72 25 13 -6 22 -4 35 11 17 20 18 20 37 3 17
-16 22 -16 30 -4 7 11 7 6 3 -15 -7 -27 -6 -29 9 -16 10 7 17 9 17 4 0 -6 12
-8 26 -5 19 3 25 1 20 -7 -6 -8 0 -10 18 -5 21 5 25 3 20 -10 -6 -16 2 -19 49
-19 13 0 16 -5 11 -20 -4 -14 -3 -17 7 -12 16 11 69 12 69 3 0 -20 37 -44 56
-37 30 12 37 10 25 -5 -9 -11 -8 -15 6 -21 10 -5 20 -9 23 -9 3 -1 11 -5 18
-10 7 -4 24 -5 37 -2 19 5 23 3 19 -8 -4 -9 8 -20 35 -32 23 -10 41 -21 41
-25 0 -4 9 -5 20 -2 11 3 26 0 34 -6 11 -9 15 -9 19 1 3 9 11 6 30 -10 18 -17
26 -20 30 -10 4 10 6 9 6 -2 1 -12 14 -15 59 -15 31 1 67 -5 79 -12 11 -7 35
-11 52 -8 18 2 37 -2 45 -11 10 -10 17 -11 22 -3 5 8 8 8 13 0 5 -8 19 -4 44
13 26 18 34 20 30 9 -5 -14 0 -15 30 -10 28 4 39 2 47 -11 9 -14 10 -13 5 6
-4 13 -2 22 4 22 6 0 11 -5 11 -11 0 -7 10 -9 24 -7 18 4 23 1 18 -10 -3 -10
-1 -13 6 -8 7 4 12 14 12 22 0 8 5 14 10 14 6 0 10 -6 10 -14 0 -11 7 -13 33
-6 35 10 55 9 75 -3 17 -11 32 0 33 26 0 20 1 20 8 3 7 -17 8 -17 24 -2 16 16
17 16 17 -4 0 -20 1 -20 16 -5 12 12 19 13 24 5 10 -16 24 5 15 23 -4 6 -1 5
7 -3 7 -8 22 -16 33 -18 14 -2 16 0 7 6 -13 9 -6 42 9 42 4 0 6 -8 2 -17 -6
-17 -5 -17 14 -1 24 22 33 23 33 3 0 -13 4 -14 20 -5 19 10 28 31 13 29 -20
-3 -27 2 -14 10 9 6 19 4 28 -5 15 -15 38 -9 28 7 -4 5 -2 9 4 9 18 0 23 -21
9 -37 -12 -15 -11 -15 9 -5 12 7 25 21 28 32 3 11 13 20 21 20 9 0 22 7 31 15
9 10 27 14 49 11 29 -3 34 0 29 14 -8 24 33 42 83 37 44 -5 51 0 30 22 -11 10
-10 11 5 6 10 -4 17 -2 17 4 0 6 5 11 10 11 6 0 22 12 35 26 13 14 29 23 34
19 6 -3 11 -2 11 4 0 5 -5 11 -12 13 -7 3 -1 21 16 51 17 28 32 44 39 40 7 -3
8 -2 4 2 -11 12 -37 15 -37 4 0 -5 -5 -9 -10 -9 -6 0 -3 11 7 25 10 13 24 22
31 20 6 -2 12 0 12 5 0 6 -4 10 -9 10 -5 0 -11 9 -14 20 -3 11 -1 20 4 20 5 0
8 3 8 8 -5 27 1 34 19 21 9 -7 6 -2 -6 13 -22 24 -22 27 -5 31 16 4 16 5 1 6
-20 1 -25 21 -6 21 6 0 8 3 5 7 -4 3 0 17 9 31 9 13 11 21 5 18 -6 -4 -11 -3
-11 3 0 5 4 12 9 15 5 3 7 16 3 28 -3 14 -2 19 6 14 7 -4 12 -2 12 3 0 6 -10
11 -22 11 -20 1 -21 2 -8 13 9 7 14 20 12 30 -2 9 1 17 7 17 6 0 11 4 11 10 0
5 -6 7 -14 4 -11 -4 -13 2 -9 29 2 19 0 38 -6 41 -6 4 -8 12 -5 20 3 7 0 24
-5 39 -6 15 -6 29 -1 32 11 7 4 49 -10 53 -6 2 -6 10 0 22 7 13 6 20 -6 24 -8
3 -12 11 -9 17 4 6 -2 13 -14 16 -24 6 -28 28 -6 37 8 3 15 12 15 20 0 19 25
27 39 13 9 -9 13 -6 18 13 6 22 7 23 15 4 6 -14 7 -9 5 18 -2 20 1 34 5 32 4
-3 8 -14 8 -25 0 -10 5 -19 10 -19 6 0 10 6 10 13 0 8 3 8 8 2 17 -24 82 1 82
31 0 8 12 15 28 16 46 2 49 3 68 18 16 14 17 13 11 -2 -8 -22 6 -23 27 -3 12
12 39 20 89 24 4 1 7 11 7 24 0 12 4 17 8 11 15 -23 45 -25 59 -4 8 11 18 18
23 15 4 -3 10 0 12 5 5 16 74 30 87 17 7 -7 18 -7 36 3 14 7 23 15 20 18 -13
13 25 29 60 25 35 -3 37 -2 24 13 -13 16 -11 17 19 11 25 -5 34 -3 39 10 6 15
7 14 14 -3 7 -18 8 -18 15 3 3 13 10 20 15 17 5 -3 6 2 3 11 -4 9 -13 14 -21
11 -8 -3 -11 -1 -8 5 4 5 15 7 25 4 13 -4 20 0 25 14 3 12 4 25 1 30 -3 5 1
11 9 15 8 3 15 10 15 15 0 6 -7 8 -15 5 -8 -4 -15 -1 -15 5 0 7 10 16 23 21
21 8 20 11 -3 14 -6 0 -15 8 -20 16 -8 12 -10 12 -10 -5 -1 -19 -1 -19 -11 -2
-6 9 -15 15 -20 11 -5 -3 -21 1 -34 10 -30 20 -36 20 -29 1 4 -8 1 -15 -4 -15
-6 0 -12 7 -14 16 -2 9 -6 12 -10 8z m-58 -54 c0 -5 -4 -10 -10 -10 -5 0 -10
5 -10 10 0 6 5 10 10 10 6 0 10 -4 10 -10z m-70 -24 c0 -3 -4 -8 -10 -11 -5
-3 -10 -1 -10 4 0 6 5 11 10 11 6 0 10 -2 10 -4z m-126 -71 c-4 -8 -11 -15
-16 -15 -6 0 -5 6 2 15 7 8 14 15 16 15 2 0 1 -7 -2 -15z m-74 -5 c0 -5 -5
-10 -11 -10 -5 0 -7 5 -4 10 3 6 8 10 11 10 2 0 4 -4 4 -10z m-221 -83 c0 -9
-2 -9 -5 0 -3 7 -13 9 -22 6 -14 -4 -14 -3 -2 5 16 12 30 7 29 -11z m531 13
c0 -5 -4 -10 -10 -10 -5 0 -10 5 -10 10 0 6 5 10 10 10 6 0 10 -4 10 -10z
m-150 -4 c0 -2 -7 -6 -15 -10 -8 -3 -15 -1 -15 4 0 6 7 10 15 10 8 0 15 -2 15
-4z m-430 -16 c0 -5 -2 -10 -4 -10 -3 0 -8 5 -11 10 -3 6 -1 10 4 10 6 0 11
-4 11 -10z m430 -20 c0 -5 -8 -10 -17 -10 -15 0 -16 2 -3 10 19 12 20 12 20 0z
m65 0 c-3 -5 -11 -10 -16 -10 -6 0 -7 5 -4 10 3 6 11 10 16 10 6 0 7 -4 4 -10z
m-135 -28 c0 -13 -12 -22 -22 -16 -10 6 -1 24 13 24 5 0 9 -4 9 -8z m-95 -42
c3 -5 1 -10 -4 -10 -6 0 -11 5 -11 10 0 6 2 10 4 10 3 0 8 -4 11 -10z m-2155
-870 c0 -5 -7 -10 -16 -10 -8 0 -12 5 -9 10 3 6 10 10 16 10 5 0 9 -4 9 -10z
m-433 -96 c-3 -3 -12 -4 -19 -1 -8 3 -5 6 6 6 11 1 17 -2 13 -5z m980 -130
c-3 -3 -12 -4 -19 -1 -8 3 -5 6 6 6 11 1 17 -2 13 -5z m-410 -40 c-3 -3 -12
-4 -19 -1 -8 3 -5 6 6 6 11 1 17 -2 13 -5z m118 -64 c3 -5 1 -10 -4 -10 -6 0
-11 5 -11 10 0 6 2 10 4 10 3 0 8 -4 11 -10z"/>
<path d="M1664 2689 c-3 -6 -1 -16 5 -22 9 -9 11 -8 6 6 -8 20 20 25 28 5 4
-9 8 -10 14 -2 4 6 15 14 23 17 8 3 -4 6 -27 6 -23 1 -45 -4 -49 -10z"/>
<path d="M3910 2570 c0 -5 5 -10 11 -10 5 0 7 5 4 10 -3 6 -8 10 -11 10 -2 0
-4 -4 -4 -10z"/>
<path d="M2990 2469 c0 -5 5 -7 10 -4 6 3 10 8 10 11 0 2 -4 4 -10 4 -5 0 -10
-5 -10 -11z"/>
<path d="M776 2454 c-4 -9 -4 -19 -1 -22 3 -3 5 0 5 7 0 7 4 9 10 6 6 -3 7 1
4 9 -8 20 -10 20 -18 0z"/>
<path d="M3580 2425 c-11 -13 -10 -14 4 -9 9 3 16 10 16 15 0 13 -6 11 -20 -6z"/>
<path d="M1893 2372 c-31 -12 -47 -25 -58 -49 -9 -18 -24 -37 -34 -43 -22 -11
-50 -86 -58 -150 -4 -39 -1 -48 20 -68 22 -20 28 -22 46 -11 21 14 72 124 91
197 14 56 32 54 103 -9 31 -28 57 -47 57 -42 0 4 4 2 9 -6 6 -10 19 -12 45 -7
31 6 36 11 36 36 0 20 -9 36 -32 54 -18 14 -40 32 -48 39 -72 64 -120 79 -177
59z"/>
<path d="M1962 1995 c-27 -12 -37 -12 -54 -2 -16 9 -22 9 -25 0 -3 -7 -16 -13
-29 -13 -14 0 -24 -6 -24 -14 0 -21 -21 -31 -30 -16 -6 9 -10 6 -15 -9 -4 -14
-18 -24 -36 -28 -27 -5 -42 -23 -19 -23 6 0 10 -12 9 -27 0 -16 -3 -22 -6 -15
-10 26 -31 -22 -28 -66 2 -25 0 -40 -6 -36 -5 3 -7 10 -4 15 4 5 1 9 -4 9 -6
0 -11 -8 -11 -17 0 -16 -2 -16 -11 -3 -9 12 -10 12 -5 -3 3 -10 6 -23 6 -28 0
-6 5 -7 10 -4 6 3 10 -4 9 -17 0 -13 -3 -17 -6 -10 -2 6 -8 12 -13 12 -10 0
-8 -20 3 -37 5 -8 3 -13 -4 -13 -7 0 -5 -6 6 -14 11 -8 16 -19 12 -30 -4 -9
-1 -16 4 -16 7 0 9 -9 6 -21 -4 -17 -3 -19 6 -10 6 6 18 11 26 11 11 0 12 -3
4 -11 -18 -18 6 -62 29 -56 10 3 18 2 18 -1 0 -4 12 -12 26 -19 22 -10 25 -10
20 3 -3 7 -1 14 4 14 6 0 10 -5 10 -11 0 -6 7 -3 16 5 17 18 28 21 19 6 -3 -5
1 -20 9 -32 l15 -22 10 25 c7 17 10 19 10 7 1 -16 18 -23 44 -19 4 0 7 -5 7
-11 1 -9 4 -8 13 2 15 19 47 25 47 9 0 -7 3 -9 6 -6 4 3 15 2 25 -4 15 -7 17
-6 13 5 -4 11 0 13 15 9 12 -3 21 -10 21 -15 0 -6 16 -7 39 -3 25 4 41 2 46
-5 5 -8 11 -6 20 6 12 17 14 17 38 1 16 -10 28 -13 32 -7 4 6 10 8 14 6 4 -3
13 9 20 25 10 24 16 27 27 18 11 -9 14 -8 14 5 0 9 4 16 10 16 6 0 8 16 5 38
-2 20 -1 31 3 24 11 -16 37 30 29 51 -3 7 -1 20 3 28 6 8 4 16 -3 21 -8 5 -6
8 6 8 9 0 17 6 17 13 0 8 4 7 10 -3 6 -9 10 -10 10 -3 0 6 -12 22 -27 34 -16
12 -20 19 -11 16 14 -5 17 -2 15 13 -4 27 -17 37 -18 14 0 -18 -1 -18 -9 1 -5
14 -3 24 7 32 12 9 12 13 1 20 -7 4 -18 17 -24 28 -6 11 -20 24 -31 29 -17 8
-20 16 -16 44 5 30 4 34 -13 28 -14 -4 -23 2 -36 24 -17 30 -38 40 -38 18 0
-9 -3 -9 -12 0 -8 8 -20 7 -47 -4 -20 -8 -46 -12 -60 -9 -21 5 -22 7 -7 18 14
10 12 12 -15 11 -17 0 -34 -5 -37 -10 -4 -5 -16 -14 -28 -21 -17 -9 -24 -8
-37 7 -8 10 -13 21 -10 24 9 9 2 7 -35 -9z m-52 -25 c0 -5 -4 -10 -10 -10 -5
0 -10 5 -10 10 0 6 5 10 10 10 6 0 10 -4 10 -10z m-40 -4 c0 -11 -19 -15 -25
-6 -3 5 1 10 9 10 9 0 16 -2 16 -4z m257 -12 c-3 -3 -12 -4 -19 -1 -8 3 -5 6
6 6 11 1 17 -2 13 -5z m3 -124 c0 -5 -10 -15 -22 -21 l-23 -12 20 21 c23 24
25 25 25 12z m-168 -42 c10 -4 19 -1 22 9 6 13 9 13 29 1 26 -17 48 -13 40 8
-4 10 0 12 11 8 9 -3 16 -12 16 -20 0 -16 26 -19 35 -4 3 6 12 10 18 9 9 0 8
-2 -1 -6 -6 -2 -10 -9 -6 -14 8 -13 22 -11 27 4 2 6 3 4 2 -5 -2 -10 1 -21 7
-24 5 -4 8 -19 4 -34 -3 -20 -1 -30 10 -34 12 -5 11 -9 -6 -26 -21 -21 -36
-27 -26 -11 3 5 -1 11 -9 14 -9 4 -12 1 -8 -9 3 -8 -1 -14 -11 -14 -9 0 -16 6
-17 13 0 8 -2 8 -5 1 -3 -6 -18 -10 -34 -8 -17 2 -30 0 -30 -4 0 -4 -9 -8 -20
-9 -22 -2 -27 12 -7 20 7 3 5 6 -5 6 -10 1 -18 -4 -18 -9 0 -7 -6 -7 -18 -1
-10 6 -29 7 -42 4 -16 -4 -21 -3 -16 5 4 7 3 12 -2 12 -6 0 -8 9 -5 20 4 15 0
20 -16 20 l-21 0 20 20 c11 11 20 24 20 29 0 5 9 11 21 14 18 5 19 9 9 29 -9
19 -9 21 2 7 7 -8 21 -18 30 -21z m-92 -48 c0 -5 -6 -10 -14 -10 -8 0 -18 5
-21 10 -3 6 3 10 14 10 12 0 21 -4 21 -10z m310 -125 c0 -2 -9 -3 -19 -2 -11
0 -18 5 -15 9 4 6 34 0 34 -7z m-420 -75 c0 -5 -4 -10 -10 -10 -5 0 -10 5 -10
10 0 6 5 10 10 10 6 0 10 -4 10 -10z"/>
<path d="M2165 2000 c-3 -5 1 -10 10 -10 9 0 13 5 10 10 -3 6 -8 10 -10 10 -2
0 -7 -4 -10 -10z"/>
<path d="M722 1896 c7 -8 15 -12 17 -11 5 6 -10 25 -20 25 -5 0 -4 -6 3 -14z"/>
<path d="M1680 1789 c0 -5 5 -7 10 -4 6 3 10 8 10 11 0 2 -4 4 -10 4 -5 0 -10
-5 -10 -11z"/>
<path d="M1660 1610 c0 -11 2 -20 4 -20 2 0 6 9 9 20 3 11 1 20 -4 20 -5 0 -9
-9 -9 -20z"/>
<path d="M2417 1583 c-4 -3 -7 -11 -7 -17 0 -6 5 -5 12 2 6 6 9 14 7 17 -3 3
-9 2 -12 -2z"/>
<path d="M1460 1441 c0 -6 5 -13 10 -16 6 -3 10 1 10 9 0 9 -4 16 -10 16 -5 0
-10 -4 -10 -9z"/>
<path d="M341 1364 c13 -16 29 -19 29 -5 0 5 -9 11 -21 14 -16 4 -18 3 -8 -9z"/>
<path d="M647 1362 c-9 -2 -15 -8 -12 -13 8 -12 45 -12 45 0 0 13 -12 18 -33
13z"/>
<path d="M2835 1280 c3 -5 8 -10 11 -10 2 0 4 5 4 10 0 6 -5 10 -11 10 -5 0
-7 -4 -4 -10z"/>
<path d="M2811 1264 c0 -11 3 -14 6 -6 3 7 2 16 -1 19 -3 4 -6 -2 -5 -13z"/>
<path d="M2716 1225 c-9 -26 -7 -32 5 -12 6 10 9 21 6 23 -2 3 -7 -2 -11 -11z"/>
<path d="M1698 1113 c7 -3 16 -2 19 1 4 3 -2 6 -13 5 -11 0 -14 -3 -6 -6z"/>
</g>
</svg>
